FILE "Tokimeki Card Paradise - Koi no Royal Straight Flush (1996)(Sonnet)(JP)[FXSNT501].img" BINARY
  TRACK 01 AUDIO
    INDEX 01 00:00:00
  TRACK 02 MODE1/2352
    PREGAP 00:03:00
    INDEX 01 00:55:45
  TRACK 03 AUDIO
    PREGAP 00:02:00
    INDEX 01 02:04:56
  TRACK 04 AUDIO
    INDEX 01 02:11:23
  TRACK 05 AUDIO
    INDEX 01 02:17:26
  TRACK 06 AUDIO
    INDEX 01 02:24:07
  TRACK 07 AUDIO
    INDEX 01 02:32:38
  TRACK 08 AUDIO
    INDEX 01 02:41:22
  TRACK 09 AUDIO
    INDEX 01 04:01:72
  TRACK 10 AUDIO
    INDEX 01 07:00:68
  TRACK 11 AUDIO
    INDEX 01 09:59:64
  TRACK 12 AUDIO
    INDEX 01 12:51:58
  TRACK 13 AUDIO
    INDEX 01 15:20:34
  TRACK 14 AUDIO
    INDEX 01 17:49:10
  TRACK 15 AUDIO
    INDEX 01 20:17:61
  TRACK 16 AUDIO
    INDEX 01 21:10:66
  TRACK 17 MODE1/2352
    PREGAP 00:03:00
    INDEX 01 22:03:71
  TRACK 18 MODE1/2352
    INDEX 01 23:17:21
  TRACK 19 MODE1/2352
    INDEX 01 23:29:05
  TRACK 20 MODE1/2352
    INDEX 01 23:43:66
  TRACK 21 MODE1/2352
    INDEX 01 23:57:00
  TRACK 22 MODE1/2352
    INDEX 01 24:10:10
  TRACK 23 MODE1/2352
    INDEX 01 24:27:34
  TRACK 24 MODE1/2352
    INDEX 01 24:40:16
  TRACK 25 MODE1/2352
    INDEX 01 25:02:31
  TRACK 26 MODE1/2352
    INDEX 01 25:08:45
  TRACK 27 MODE1/2352
    INDEX 01 25:30:36
  TRACK 28 MODE1/2352
    INDEX 01 26:31:27
  TRACK 29 MODE1/2352
    INDEX 01 26:50:27
  TRACK 30 MODE1/2352
    INDEX 01 27:24:44
  TRACK 31 MODE1/2352
    INDEX 01 27:45:02
  TRACK 32 MODE1/2352
    INDEX 01 27:58:22
  TRACK 33 MODE1/2352
    INDEX 01 28:12:45
  TRACK 34 MODE1/2352
    INDEX 01 28:31:68
  TRACK 35 MODE1/2352
    INDEX 01 28:49:70
  TRACK 36 MODE1/2352
    INDEX 01 29:22:24
  TRACK 37 MODE1/2352
    INDEX 01 29:29:24
  TRACK 38 MODE1/2352
    INDEX 01 29:49:72
  TRACK 39 MODE1/2352
    INDEX 01 30:48:25
  TRACK 40 MODE1/2352
    INDEX 01 31:28:24
  TRACK 41 MODE1/2352
    INDEX 01 31:51:42
  TRACK 42 MODE1/2352
    INDEX 01 32:06:50
  TRACK 43 MODE1/2352
    INDEX 01 32:18:52
  TRACK 44 MODE1/2352
    INDEX 01 32:39:31
  TRACK 45 MODE1/2352
    INDEX 01 32:54:00
  TRACK 46 MODE1/2352
    INDEX 01 33:18:11
  TRACK 47 MODE1/2352
    INDEX 01 33:37:16
  TRACK 48 MODE1/2352
    INDEX 01 33:45:39
  TRACK 49 MODE1/2352
    INDEX 01 34:05:13
  TRACK 50 MODE1/2352
    INDEX 01 34:52:41
  TRACK 51 MODE1/2352
    INDEX 01 35:04:40
  TRACK 52 MODE1/2352
    INDEX 01 35:39:11
  TRACK 53 MODE1/2352
    INDEX 01 35:52:32
  TRACK 54 MODE1/2352
    INDEX 01 36:02:43
  TRACK 55 MODE1/2352
    INDEX 01 36:22:58
  TRACK 56 MODE1/2352
    INDEX 01 36:37:45
  TRACK 57 MODE1/2352
    INDEX 01 37:00:52
  TRACK 58 MODE1/2352
    INDEX 01 37:15:59
  TRACK 59 MODE1/2352
    INDEX 01 37:29:28
  TRACK 60 MODE1/2352
    INDEX 01 37:34:68
  TRACK 61 MODE1/2352
    INDEX 01 38:24:32
  TRACK 62 MODE1/2352
    INDEX 01 39:16:51
  TRACK 63 MODE1/2352
    INDEX 01 39:31:52
  TRACK 64 MODE1/2352
    INDEX 01 39:46:49
  TRACK 65 MODE1/2352
    INDEX 01 39:54:24
  TRACK 66 MODE1/2352
    INDEX 01 40:08:22
  TRACK 67 MODE1/2352
    INDEX 01 40:20:08
  TRACK 68 MODE1/2352
    INDEX 01 40:29:63
  TRACK 69 MODE1/2352
    INDEX 01 40:41:70
  TRACK 70 MODE1/2352
    INDEX 01 40:55:34
  TRACK 71 MODE1/2352
    INDEX 01 41:05:51
